<?xml version="1.0" encoding="utf-8"?>
<!-- Generator: Adobe Illustrator 21.1.0, SVG Export Plug-In . SVG Version: 6.00 Build 0)  -->
<svg version="1.1" id="Calque_1" xmlns="http://www.w3.org/2000/svg" xmlns:xlink="http://www.w3.org/1999/xlink" x="0px" y="0px"
	 viewBox="0 0 432 432" style="enable-background:new 0 0 432 432;" xml:space="preserve">
<style type="text/css">
	.st0{fill:#4C2814;}
	.st1{fill:#849729;}
	.st2{fill:#F8AB00;}
	.st3{fill:#D84015;}
	.st4{fill:#FFFFFF;}
	.st5{fill:#13110C;}
	.st6{fill:#F28B00;}
	.st7{fill:#B57D44;}
	.st8{fill:#65A96B;}
	.st9{fill:#006633;}
	.st10{fill:#82BB26;}
	.st11{fill:#649C30;}
	.st12{fill:#008D3D;}
	.st13{fill:#AF175D;}
	.st14{fill:#00A33A;}
	.st15{fill:#9B6228;}
	.st16{fill:#D01419;}
	.st17{fill:#BB5918;}
	.st18{fill:#E2740C;}
	.st19{fill:#6E3B11;}
	.st20{fill:#4F7E2F;}
	.st21{fill:#3F5B25;}
	.st22{fill:#C13417;}
	.st23{fill:#E45327;}
	.st24{fill:#AC2817;}
	.st25{fill:#643514;}
	.st26{fill:#FDF3E4;}
	.st27{fill:#C31442;}
	.st28{fill:#B71640;}
	.st29{fill:#E53612;}
	.st30{fill:#DC3614;}
	.st31{fill:#36312E;}
	.st32{fill:#FCE7D3;}
	.st33{fill:#A72A17;}
	.st34{fill:#702283;}
	.st35{fill:#4F2468;}
	.st36{fill:#27192B;}
	.st37{fill:#E74310;}
	.st38{fill:#844D16;}
	.st39{fill:#BA9C16;}
	.st40{fill:#D8BA31;}
	.st41{fill:#D36415;}
	.st42{fill:#D5D4D4;}
	.st43{fill:#A29F9D;}
	.st44{fill:#DAB4D4;}
	.st45{fill:#C796BE;}
	.st46{fill:#A47B9B;}
	.st47{fill:#EDECED;}
	.st48{fill:#D3D1D1;}
	.st49{fill:#D91815;}
	.st50{fill:#AE1917;}
	.st51{fill:#8C1818;}
	.st52{fill:#A15418;}
	.st53{fill:#AB4317;}
	.st54{fill:#D36114;}
	.st55{fill:#E0852C;}
	.st56{fill:#DB760F;}
	.st57{fill:#F6E5D7;}
	.st58{fill:#1A1713;}
	.st59{fill:#F9BD95;}
	.st60{fill:#EE7042;}
	.st61{fill:#E87507;}
	.st62{fill:#DD5013;}
	.st63{fill:#CE6D28;}
	.st64{fill:#E84C0F;}
	.st65{fill:#EE8600;}
	.st66{fill:#CB8013;}
	.st67{fill:#E59256;}
	.st68{fill:#E5640D;}
	.st69{fill:#433C37;}
	.st70{fill:#EC7105;}
	.st71{fill:#46702C;}
	.st72{fill:#971827;}
	.st73{fill:#EFC8A8;}
	.st74{fill:#DEAE8A;}
	.st75{fill:#B03517;}
	.st76{fill:#A13016;}
	.st77{fill:#F49900;}
	.st78{fill:#FFFCF8;}
	.st79{fill:#63211D;}
	.st80{fill:#9C2A2A;}
	.st81{fill:#171511;}
	.st82{fill:#BEBBBB;}
	.st83{fill:#362A85;}
	.st84{fill:#F1883B;}
	.st85{fill:#F7A518;}
	.st86{fill:#E13713;}
</style>
<g>
	<g>
		<path class="st7" d="M190.7,284.6c-22.3-22.1-101-48.4-86.1-88.9c19.4-52.6,30.6-33.1,30.6-119.9c0-6.4-7.2-7.6-9.3,10.5
			s-7.2,36.2-8,39c-0.8,2.8-7.6-8.4-8.4-15.7c-0.8-7.2-8.8-12.1-6.2,9.3c10.2,84.8-28.8,41-34,22.5c-2.4-8.4-14.9-9.3-2.8,22.5
			s35.8,74,33.4,76c-2.4,2-76.7-42.7-31-1.6c54.8,49.3,49.3,23.6,81.3,41c4.4,2.4-14.9,14.1-23.7,13.3s-31.8-5.2-14.9,6.8
			s33,3.6,39.8,0c21.2-11.2,20.4,0.9,32.2,5.5C189.1,307.1,197.2,291,190.7,284.6z"/>
		<path class="st7" d="M241.3,284.6c22.3-22.1,101-48.4,86.1-88.9c-19.4-52.6-30.6-33.1-30.6-119.9c0-6.4,7.2-7.6,9.3,10.5
			s7.2,36.2,8,39c0.8,2.8,7.6-8.4,8.4-15.7s8.8-12.1,6.2,9.3c-10.2,84.8,28.8,41,34,22.5c2.4-8.4,14.9-9.3,2.8,22.5
			c-12.1,31.8-35.8,74-33.4,76c2.4,2,76.7-42.7,31-1.6c-54.8,49.3-49.3,23.6-81.3,41c-4.4,2.4,14.9,14.1,23.7,13.3
			c8.9-0.8,31.8-5.2,14.9,6.8c-16.9,12.1-33,3.6-39.8,0c-21.2-11.2-20.4,0.9-32.2,5.5C242.9,307.1,234.8,291,241.3,284.6z"/>
	</g>
	<g>
		<g>
			<g>
				<path class="st8" d="M202,277.2c1.9-2.5,4.4-2.1,5-2.9c-1.4-1.1-3.6-1.2-4.4-1.1c3-3.9,4.5-11.8,5.7-14.1
					c-5.3,2.7-7.4,8-9.6,8.9c-0.8-9.9-4.7-16-6.4-17.6c-1.2,4.8-2.1,7.1-3.9,8.3c-2.5-9.5,5-17.1-2-24.3c-0.5,3.3-2.5,6.5-3.2,6.9
					c-0.6-1.5-0.4-3.4-1.3-4.3c-1.1,2.9-2,4.5-2.5,5.4c-2.3-3.8-5.8-5.2-6.4-8.5c-0.6-3.2-2.9-8.1-3-9.9c-1.6,5.8-4,14.2-2.1,19.9
					c-2.5,3.3-4.3,3.4-6.4,2.4c3.8,5.5,9.1,9.1,12.8,11c3.7,1.9,2.4,5.4-0.7,5.7c-3.1,0.3-7.7,0.5-7.5,1.1c5.5,4.3,16,3.5,19.2,5.3
					c-1.8,5.2,0.5,5-3.8,7.9c-4.2,3-3.4,5.1-4.6,5.4c6.2-0.4,10.5-3.2,16.3-4.8C199.1,276.1,199.1,281.1,202,277.2z"/>
			</g>
			<path class="st9" d="M208.9,286.2c-3.3-4-7.3-7.3-11.2-10.7c-1-0.9-1.9-1.7-2.9-2.6c-0.9-0.9-1.9-1.6-2.9-2.5
				c-2-1.6-4-3.4-5.9-5.1c-1.9-1.8-3.7-3.7-5.4-5.8c-1.6-2.1-3.2-4.2-4.5-6.5c-2.7-4.5-4.5-9.6-5-14.8c1.4,5,3.6,9.7,6.4,13.9
				c2.8,4.2,6.3,8,10,11.5c1.8,1.8,3.8,3.5,5.7,5.2c1,0.8,2,1.7,2.9,2.7l2.7,2.8C202.6,278,206.4,281.7,208.9,286.2z"/>
		</g>
		<g>
			<path class="st10" d="M230.5,278c-1.7,5.9-6.8,18.3-8.6,21.4c5.8,6.1,0.8,26.5-24.4,26.3c-5.5-15.5,9-34.7,21.7-28.2
				c7.7-11,8.7-19.4,8.8-21.6C228.9,275.7,231,276.1,230.5,278z"/>
			<path class="st11" d="M220.7,297.9c-1.3,2.2-2.3,4.5-3.5,6.7c-0.3,0.6-0.6,1.1-0.9,1.7c-0.3,0.5-0.5,1.1-0.8,1.6
				c-0.6,1.1-1.2,2.2-1.9,3.3c-1.4,2.2-2.9,4.2-4.8,6c-1.8,1.8-3.9,3.3-6.2,4.4c1.8-1.8,3.4-3.6,5-5.5c1.5-1.9,2.9-3.9,4.2-6
				c0.7-1,1.3-2.1,1.9-3.2c0.3-0.5,0.6-1.1,1-1.6c0.3-0.5,0.7-1,1.1-1.5C217.2,301.7,218.7,299.6,220.7,297.9z"/>
		</g>
		<g>
			<path class="st12" d="M276.2,337.4c3.1-1,12-2.9,16.5,1.4c4.4,4.3,5.6,7.3,6.3,8.7c-6.5,1-10.3,3.2-13.9,0.3
				C281.4,344.8,274.6,337.9,276.2,337.4z"/>
			<path class="st12" d="M271.9,340.7c2.3,2.5,3.2,6.6,2.9,9.8c-0.3,3.2-1.2,6-2.7,7.5c-1.5-3.5-3.9-4.2-4-7.5
				C268,345,270.1,338.7,271.9,340.7z"/>
			<path class="st12" d="M272.7,326.1c3.7-0.2,9.1-3.6,11.3-5.4c2.2-1.8,3.2-3.5,4.4-4.6c-5.4-1-6.8-2.7-10.1-0.8
				S270,326.3,272.7,326.1z"/>
			<path class="st12" d="M251.7,332.7c1.4,1.8,2.3,9.9-1.1,14.6c-0.9,1.2-2.2,3.4-2.8,4c-1.5-3.2-3.9-6.2-3.1-9.6
				C245.9,336.2,249.2,329.4,251.7,332.7z"/>
			<path class="st12" d="M262.3,322.1c3.1-0.7,7.3-5.6,8.2-9.1s0.8-5.5,1.2-7c-8,2-9.9,4.5-10,8.7S259.4,322.8,262.3,322.1z"/>
			<path class="st12" d="M235.8,316.8c1.4,2.5-1.3,8.4-5.4,10.5c-4.1,2.1-7.9,2.3-9,1.9c-0.4-3.8-0.4-7.1,2.9-10.2
				C227.2,316.3,234.6,314.5,235.8,316.8z"/>
			<path class="st12" d="M245.2,307c1,1.5,4.5,1.9,8.5-0.2s6-6.8,9-7.1c-4.2-2.9-7-1.6-9.3-0.5C250.5,300.6,244,305.1,245.2,307z"/>
		</g>
		<path class="st9" d="M263.1,329c5.5,0.2,14-4.6,15.7-7.3c-11.5,7-10.6,4.9-18.5,5.5c-1.9-1.2-3.3-2.2-5.1-3.5
			c7.9,0.1,11.9-4.2,12.2-8.3c-4.2,6.8-9.8,6.7-15.5,5.8c-5.7-4.2-10-9.6-13.4-15.7c4.9,2.4,8.5,3.1,12,0.3
			c-5.3,1.1-8.6-0.8-13.3-2.7c-1.1-2.1-2-4.3-2.9-6.5c-0.6-1.6-1.3-3.2-1.9-4.8c-0.6-1.6-1.2-3.3-1.9-4.9c0.9,3.4,1.7,6.7,2.7,10.1
			c1.3,4.2,3,8.3,5.2,12.2c-2.1,4.3-3.1,7.9-6.8,11.6c3.7-0.3,5.1-4.6,7.8-10.1c2.6,4.2,5.5,7.7,9.3,10.8c1,5.6,1.9,9.8,2.3,15.6
			c2-3.4,0.1-9.6,0-13.9c4.4,3.2,8.1,5.9,17.5,10.9c0.3,3.3,2.2,7.8,3.6,10.4c1.1-2.5-1.4-4.5-2.3-9.7c4.9,2.6,13.3,6.5,17.7,7.6
			C280.6,339.7,269.7,333.3,263.1,329z"/>
		<path class="st9" d="M323.4,295.9c0.3,1.1,1.5,9.9-7,5.3c-3.3-4.1-6.8-8.2-11.2-11.2c5.5,0.2,6.4-3.5,5-5.2c-0.8,3.4-1.9,4-6.9,4
			c-2.8-1.7-5.8-3.2-10-4.6c7-0.2,5.2-7.6,2.6-7.9c3.2,4.9-0.9,7.1-5,7.2c-5.2-1.5-10.2-2.4-15.7-2.4c5.8,1,11.5,2.6,17.2,4.8
			c1.4,4.1,1.4,5.9-5.3,7.9c2.9,1.6,10-1.2,6.3-7.5c4.9,2,10,4.7,13.9,8.1c0.7,6.2,0.5,7.7-6.9,8.5c3.1,2,10.6,0.6,8.1-7.3
			c3.5,3.3,6.5,6.6,9.5,10.1c0.4,5.1-0.8,6.3-2.4,8c2.1,0.4,4.5-2.7,3.6-6.7c1.7,2.1,3.4,4.2,4.9,6.4c-1.7-3.8-4-7.3-6.5-10.6
			C325.8,307.6,326,297.2,323.4,295.9z"/>
		<g>
			
				<ellipse transform="matrix(0.3513 -0.9363 0.9363 0.3513 -67.1881 454.2197)" class="st13" cx="294.2" cy="275.6" rx="2.5" ry="3.2"/>
			
				<ellipse transform="matrix(0.1642 -0.9864 0.9864 0.1642 -50.1087 527.6643)" class="st13" cx="286.3" cy="293.4" rx="2.5" ry="3.2"/>
			
				<ellipse transform="matrix(0.1642 -0.9864 0.9864 0.1642 -47.4656 549.8798)" class="st13" cx="300.8" cy="302.9" rx="2.5" ry="3.2"/>
			
				<ellipse transform="matrix(0.8827 -0.4699 0.4699 0.8827 -96.8985 178.371)" class="st13" cx="308.9" cy="283.3" rx="2.5" ry="3.2"/>
			
				<ellipse transform="matrix(0.8827 -0.4699 0.4699 0.8827 -100.6983 186.2802)" class="st13" cx="322.8" cy="294.9" rx="2.5" ry="3.2"/>
			
				<ellipse transform="matrix(0.9725 -0.2328 0.2328 0.9725 -64.221 81.8218)" class="st13" cx="314.5" cy="313" rx="3.2" ry="2.5"/>
			
				<ellipse transform="matrix(0.8827 -0.4699 0.4699 0.8827 -109.2076 189.0742)" class="st13" cx="324.2" cy="313.3" rx="2.5" ry="3.2"/>
		</g>
		<g>
			<path class="st14" d="M270.6,216.9c2.8-1.1,4.5-3.5,10.8-8c-4.5-0.5-5,3-10.8,7c0-8.4-1-17.3-5.4-24.4c3.2,7.3,3.8,14.2,3.6,22.6
				c-4.4-4.4-6.2-8.9-9.5-9.5v0v0c4,4.7,6.5,8.4,9.5,11.3c-0.4,12.3-1.6,16.9-3.7,22c-2.8-6.8-4-13.4-7.7-16l0,0v0l0,0
				c1.5,3.4,3.5,9.7,7.1,17.3c-1.7,3.9-3.9,7.7-6.3,11.2c-2.6-5.6-3.1-11.3-6.4-12.6c0.1,0.3,5.7,13.2,5.8,13.5
				c-5.3,7.5-10.9,13.1-17.2,19.6c7.1-5.9,13.3-11.5,18.8-18.8c5.5-0.3,10.8-1.9,12.1-2.2c-2-1.3-5.6,0.4-11.1,0.8
				c2.7-3.7,4.8-7.3,6.7-11.8c3.9-0.7,7-2.4,12.3-4.1c-2.6-1.5-5.8,0.9-11.7,2.7C269.4,232.7,270.5,227.7,270.6,216.9z"/>
			<g>
				<g>
					<path class="st10" d="M268.4,197.6c2-2.2-0.7-10.8-3.7-13c-3-2.2-9.4-3.3-7.3,2.3C259.6,192.6,266.5,199.6,268.4,197.6z"/>
				</g>
				<g>
					<path class="st10" d="M262.4,206.7c1.1-3.3-3.8-8.1-7.4-8.3s-6.3,2.1-2.6,4.3C256.1,205,261.3,210.1,262.4,206.7z"/>
				</g>
				<g>
					<path class="st10" d="M260.3,226.1c0.4-3.4-2-10.6-4.6-10.9c-2.5-0.3-6.9,2.5-3.9,5.6S260.1,228.1,260.3,226.1z"/>
				</g>
				<g>
					<path class="st10" d="M276.8,210.5c0.6-3,5.2-5.5,8.6-6.1c3.4-0.6,5.2,4.3,1.7,5.3C283.7,210.7,276.2,213.5,276.8,210.5z"/>
				</g>
				<g>
					<path class="st10" d="M274.4,236.3c-0.8-1.4,1.9-3.4,6.8-4.7c4.9-1.3,10,6.8,4.2,6.3S275.7,238.7,274.4,236.3z"/>
				</g>
				<g>
					<path class="st10" d="M254.3,240.2c1.2-1.1-2.4-5.2-4.4-6c-2-0.8-3.9,1.2-2.8,2.8S252.1,242.3,254.3,240.2z"/>
				</g>
				<g>
					<path class="st10" d="M266.8,250.5c-1.2-3.2,8.3-3.1,10.4-2.9c2.2,0.2,3,3.6,0.1,4.7C274.4,253.4,268.1,253.6,266.8,250.5z"/>
				</g>
			</g>
		</g>
		<g>
			<path class="st15" d="M217.6,332.2c2,2.5,1.5,6.3-0.8,7.2c-2.2,0.9-3.4-2.5-6.3-1.6c-2.9,0.9-5.9,1.8-6.2,0.6
				c-0.3-1.2-1.1-6.8,3-7.7C211.3,329.7,215,328.9,217.6,332.2z"/>
			<path class="st7" d="M221.1,336.3c0.7-1.5,4.7,0.7,5.7,4.1s1.7,7.4-0.7,8.7c-2.4,1.3-5.5-0.3-5.8-3.8
				C220.1,341.7,219,340.9,221.1,336.3z"/>
			<path class="st7" d="M216.4,343.4c-1-1.6-3.4-4-5.1-3.6c-1.7,0.4-8.4,2.2-3.3,7.2C213.2,352.1,218.6,347.1,216.4,343.4z"/>
			<path class="st15" d="M222.7,353.5c1,1.8-5,2.5-6.4,1.9c-1.4-0.5-3.4-2.7-2.4-3.3c1-0.6,4-3,4.3-3.4
				C218.5,348.4,221.7,351.7,222.7,353.5z"/>
			<path class="st15" d="M207.7,349.8c-0.7-1.4-2.8-2.7-3.2-3.8c-0.5-1.1-0.8-3.2-1.4-4.6c-0.6-1.4-2.2,0.4-2.1,2.7
				c0.1,2.3-1.4,5.4-0.6,6.4S209.3,352.7,207.7,349.8z"/>
			<path class="st7" d="M212.5,354.1c1.2,2,4.6,3.5,2.8,4.3s-4.7,0.6-5.3-1c-0.6-1.6-1.1-4-0.6-4.9
				C209.8,351.5,210.5,350.7,212.5,354.1z"/>
			<path class="st7" d="M206.8,355c1.1,0.7,2.8,5.7,1.6,5.5c-1.2-0.2-5.5,0.2-6.7-3.2S200.9,351.2,206.8,355z"/>
		</g>
		<g>
			<path class="st15" d="M301.1,245.5c-1.9-1-2.5-3.3-1.4-4.5s2.6,0.6,4.2-0.7c1.5-1.3,3-2.6,3.5-2s2.4,3.8,0.2,5.3
				C305.5,245.3,303.5,246.7,301.1,245.5z"/>
			<path class="st7" d="M298,243.9c0,1-2.9,0.8-4.4-1c-1.5-1.8-2.9-4-1.8-5.4c1.1-1.4,3.4-1.2,4.4,0.8
				C297.2,240.4,298,240.6,298,243.9z"/>
			<path class="st7" d="M299,238.5c1,0.7,3.1,1.5,4,0.8c0.9-0.7,4.4-3.4,0.1-5.1C298.7,232.5,296.7,236.9,299,238.5z"/>
			<path class="st15" d="M292.7,234.1c-1.1-0.8,2.3-2.7,3.3-2.8c1,0,2.7,0.8,2.3,1.4s-1.6,2.8-1.7,3.1
				C296.5,236.1,293.7,234.9,292.7,234.1z"/>
			<path class="st15" d="M302.5,232.5c0.8,0.6,2.3,0.9,2.9,1.4s1.3,1.7,2,2.4c0.7,0.7,1.2-0.8,0.6-2.2c-0.7-1.3-0.5-3.6-1.3-4
				C305.9,229.8,300.8,231.2,302.5,232.5z"/>
			<path class="st7" d="M298.6,231.1c-1.2-0.9-3.6-0.9-2.7-1.8c0.9-0.9,2.6-1.5,3.4-0.8c0.8,0.8,1.6,2.1,1.6,2.8
				S300.6,232.7,298.6,231.1z"/>
			<path class="st7" d="M301.7,229.1c-0.8-0.1-3.1-2.7-2.4-2.8c0.8-0.2,3.2-1.5,4.8,0.2C305.6,228.2,306.2,229.9,301.7,229.1z"/>
		</g>
		<g>
			<path class="st16" d="M207.3,297.7c-1.1-2.2-7.5-3.2-9.4-3.6c-0.1,0-0.1,0-0.2,0c0-0.2-0.1-0.3-0.1-0.5c3.1-1.5,5.5-5.7,6.2-7.9
				c0.8-2.5-1.8-4.2-4-4c-2.2,0.2-6,5.6-7.2,7.2c-0.2-3.3-2.7-7-4.2-8.5c-1.9-1.8-4.5-0.3-5.4,1.8c-0.7,1.8,1.6,6.5,2.7,8.9
				c-2.1-1.7-6.1-2.4-7.9-2.3c-2.1,0.1-2.6,2.3-1.7,3.8c0.8,1.5,6.2,2.7,7.8,3.2c0,0,0,0,0.1,0c0,0.1,0,0.3,0.1,0.4
				c-3.2,0.3-7.1,2.5-8.6,4.2c-1.7,2,0.1,4.5,2.2,5.2c2,0.6,7-2.5,9-3.7c-1.5,3-0.7,7.4,0.2,9.5c1.1,2.3,4.6,2,6.5,0.4
				c1.9-1.5,1.5-9.1,1.5-11c0-0.1,0-0.1,0-0.1c0.1,0,0.1-0.1,0.2-0.1c0,0.1-0.1,0.2-0.1,0.2c2.3,3.1,8.1,3.8,10.6,3.3
				C207.9,303.4,208.4,299.9,207.3,297.7z"/>
			<path class="st2" d="M187.7,290.7c3.3-1.2,6.6-2.8,9,0.9c2.4,3.7,0.9,7.5-3.1,9.5c-4,2-7.7-0.3-9.2-3.5
				C182.9,294.5,184.2,292,187.7,290.7z"/>
		</g>
		<g>
			<path class="st16" d="M280.2,266.7c1.5-1.7,0-3.9-1.8-4.6c-1.8-0.6-6.7,2.4-8.2,3.2c0.9-2.7,0.3-6.5-0.4-8.2
				c-0.9-2.1-3.5-1.8-4.9-0.5c-1.2,1.2-1,5.7-0.9,8c-1.1-2.1-4-4-5.5-4.6c-1.7-0.7-2.8,0.9-2.7,2.4c0.1,1.5,4,4.3,5,5.2c0,0,0,0,0,0
				c0,0.1-0.1,0.2-0.1,0.3c-2.7-0.9-6.5-0.5-8.3,0.4c-2,1-1.5,3.6-0.1,4.9c1.3,1.2,6.4,0.4,8.5,0.2c-2.2,1.9-3.1,5.7-3.1,7.6
				c0.1,2.2,3,3.2,5,2.6c2-0.6,4.3-6.7,5-8.2c0,0,0-0.1,0-0.1c0.1,0,0.1,0,0.2,0c-0.1,0.1-0.1,0.1-0.2,0.2c0.7,3.3,5.1,5.8,7.2,6.3
				c2.2,0.4,3.8-2.2,3.7-4.3c-0.1-2.1-4.9-5.1-6.2-6.1c0,0-0.1,0-0.2,0c0-0.1,0.1-0.3,0.1-0.4C275.4,270.7,278.8,268.3,280.2,266.7z
				"/>
			<path class="st2" d="M265.6,265.1c3,0.2,6.2,0.1,6.8,3.9c0.6,3.8-1.9,6.3-5.8,6.5c-3.9,0.2-6-2.9-6.1-6
				C260.5,266.4,262.3,264.9,265.6,265.1z"/>
		</g>
		<g>
			<path class="st16" d="M288.3,281.4c0.9-1.1,0-2.5-1.1-2.9c-1.2-0.4-4.3,1.5-5.3,2c0.6-1.7,0.2-4.1-0.2-5.3
				c-0.5-1.3-2.2-1.2-3.1-0.3c-0.8,0.7-0.6,3.7-0.6,5.1c-0.7-1.3-2.5-2.6-3.5-2.9c-1.1-0.4-1.8,0.6-1.7,1.5c0.1,0.9,2.5,2.8,3.2,3.3
				c0,0,0,0,0,0c0,0.1,0,0.1-0.1,0.2c-1.7-0.6-4.1-0.3-5.3,0.2c-1.3,0.6-1,2.3,0,3.1c0.9,0.8,4.1,0.3,5.4,0.1c-1.4,1.2-2,3.6-2,4.8
				c0,1.4,1.9,2,3.2,1.7s2.7-4.3,3.2-5.2c0,0,0-0.1,0-0.1c0,0,0.1,0,0.1,0c0,0-0.1,0.1-0.1,0.1c0.5,2.1,3.2,3.7,4.6,4
				c1.4,0.3,2.4-1.4,2.4-2.7c0-1.3-3.1-3.3-3.9-3.9c0,0-0.1,0-0.1,0c0-0.1,0-0.2,0-0.3C285.2,283.9,287.4,282.4,288.3,281.4z"/>
			<path class="st2" d="M279,280.4c1.9,0.1,4,0,4.3,2.5c0.4,2.4-1.2,4-3.7,4.1c-2.5,0.1-3.8-1.9-3.9-3.8
				C275.7,281.2,276.9,280.2,279,280.4z"/>
		</g>
		<g>
			<path class="st16" d="M271,293.2c-0.3-0.9-2.7-1.6-3.4-1.9c0,0-0.1,0-0.1,0c0-0.1,0-0.1,0-0.2c1.2-0.4,2.4-1.9,2.8-2.7
				c0.4-0.9-0.5-1.7-1.3-1.7c-0.9,0-2.6,1.8-3.1,2.4c0.1-1.3-0.7-2.8-1.2-3.5c-0.6-0.8-1.7-0.3-2.2,0.4c-0.4,0.7,0.3,2.6,0.6,3.6
				c-0.7-0.8-2.2-1.2-2.9-1.3c-0.8-0.1-1.1,0.7-0.9,1.3c0.2,0.6,2.2,1.4,2.8,1.6c0,0,0,0,0,0c0,0,0,0.1,0,0.2
				c-1.3,0-2.8,0.6-3.5,1.2c-0.7,0.7-0.2,1.7,0.6,2.1c0.7,0.3,2.8-0.6,3.6-1c-0.7,1.1-0.6,2.8-0.4,3.6c0.3,0.9,1.7,1,2.5,0.5
				c0.8-0.5,1-3.4,1.1-4.1c0,0,0,0,0-0.1c0,0,0.1,0,0.1,0c0,0,0,0.1-0.1,0.1c0.7,1.3,2.9,1.9,3.9,1.8
				C270.9,295.4,271.3,294,271,293.2z"/>
			<path class="st2" d="M263.8,289.5c1.3-0.3,2.7-0.7,3.4,0.8c0.7,1.5,0,2.9-1.7,3.5c-1.6,0.6-2.9-0.5-3.3-1.8
				C261.8,290.7,262.4,289.8,263.8,289.5z"/>
		</g>
		<g>
			<path class="st16" d="M305.5,260.4c-0.3-0.9-2.7-1.6-3.4-1.9c0,0-0.1,0-0.1,0c0-0.1,0-0.1,0-0.2c1.2-0.4,2.4-1.9,2.8-2.7
				c0.4-0.9-0.5-1.7-1.3-1.7c-0.9,0-2.6,1.8-3.1,2.4c0.1-1.3-0.7-2.8-1.2-3.5c-0.6-0.8-1.7-0.3-2.2,0.4c-0.4,0.7,0.3,2.6,0.6,3.6
				c-0.7-0.8-2.2-1.2-2.9-1.3c-0.8-0.1-1.1,0.7-0.9,1.3c0.2,0.6,2.2,1.4,2.8,1.6c0,0,0,0,0,0c0,0,0,0.1,0,0.2
				c-1.3,0-2.8,0.6-3.5,1.2c-0.7,0.7-0.2,1.7,0.6,2.1c0.7,0.3,2.8-0.6,3.6-1c-0.7,1.1-0.6,2.8-0.4,3.6c0.3,0.9,1.7,1,2.5,0.5
				c0.8-0.5,1-3.4,1.1-4.1c0,0,0,0,0-0.1c0,0,0.1,0,0.1,0c0,0,0,0.1-0.1,0.1c0.7,1.3,2.9,1.9,3.9,1.8
				C305.4,262.6,305.7,261.3,305.5,260.4z"/>
			<path class="st2" d="M298.3,256.8c1.3-0.3,2.7-0.7,3.4,0.8c0.7,1.5,0,2.9-1.7,3.5c-1.6,0.6-2.9-0.5-3.3-1.8
				C296.3,258,296.9,257.1,298.3,256.8z"/>
		</g>
		<g>
			<path class="st16" d="M166.8,291.4c-0.8-1.1-5-1.2-6.2-1.3c1.6-1.2,2.7-3.8,3-5.1c0.3-1.6-1.4-2.4-2.8-2.2
				c-1.2,0.2-2.8,3.1-3.7,4.5c0.2-1.7-0.8-4-1.5-4.9c-0.8-1.1-2.1-0.6-2.5,0.4c-0.5,0.9,0.7,4.2,1,5.1c0,0,0,0,0,0
				c-0.1,0.1-0.1,0.1-0.2,0.2c-1.3-1.6-3.7-2.8-5.1-3c-1.6-0.2-2.3,1.6-1.9,2.9c0.4,1.2,3.7,2.7,5,3.4c-2.1,0.3-4.1,2.2-4.8,3.4
				c-0.8,1.4,0.6,3.1,2,3.5c1.4,0.5,5.2-2.4,6.2-3c0,0,0-0.1,0-0.1c0,0,0.1,0,0.1,0.1c-0.1,0-0.1,0-0.2,0c-0.8,2.2,0.8,5.5,1.9,6.6
				c1.1,1.1,3.1,0.2,3.9-1.1c0.8-1.3-0.9-5-1.3-6.1c0,0-0.1-0.1-0.1-0.1c0.1-0.1,0.1-0.2,0.2-0.3c1.8,1.1,4.8,0.9,6.2,0.5
				C167.7,294.4,167.7,292.5,166.8,291.4z"/>
			<path class="st2" d="M158,288.3c1.7,1.3,3.7,2.5,2.6,5s-3.6,3.1-6,1.6s-2.5-4.1-1.3-5.9C154.4,287.1,156.1,286.9,158,288.3z"/>
		</g>
		<g>
			<path class="st16" d="M180.7,278.3c-0.3-0.9-2.7-1.6-3.4-1.9c0,0-0.1,0-0.1,0c0-0.1,0-0.1,0-0.2c1.2-0.4,2.4-1.9,2.8-2.7
				c0.4-0.9-0.5-1.7-1.3-1.7c-0.9,0-2.6,1.8-3.1,2.4c0.1-1.3-0.7-2.8-1.2-3.5c-0.6-0.8-1.7-0.3-2.2,0.4c-0.4,0.7,0.3,2.6,0.6,3.6
				c-0.7-0.8-2.2-1.2-2.9-1.3c-0.8-0.1-1.1,0.7-0.9,1.3c0.2,0.6,2.2,1.4,2.8,1.6c0,0,0,0,0,0c0,0,0,0.1,0,0.2
				c-1.3,0-2.8,0.6-3.5,1.2c-0.7,0.7-0.2,1.7,0.6,2.1c0.7,0.3,2.8-0.6,3.6-1c-0.7,1.1-0.6,2.8-0.4,3.6c0.3,0.9,1.7,1,2.5,0.5
				c0.8-0.5,1-3.4,1.1-4.1c0,0,0,0,0-0.1c0,0,0.1,0,0.1,0c0,0,0,0.1-0.1,0.1c0.7,1.3,2.9,1.9,3.9,1.8
				C180.6,280.5,181,279.2,180.7,278.3z"/>
			<path class="st2" d="M173.5,274.7c1.3-0.3,2.7-0.7,3.4,0.8s0,2.9-1.7,3.5c-1.6,0.6-2.9-0.5-3.3-1.8
				C171.5,275.9,172.1,275,173.5,274.7z"/>
		</g>
		<path class="st17" d="M248.6,277.3c2-1.3,3.5-4.9,3-6.4c-2.1-6.4,3-14.4-13.8-8.1l-0.5-3.4c-0.8-2.9-2-5.3-6-4.4
			c-0.3,0.1-0.6,0.2-0.9,0.3c0.1-6-4.2,0.1-5.4-0.5c-1.2-0.6-0.4-6.6-5.2-3.6c-2.1,1.3-8.1,6.4-8.2,8.5c-4.6-0.5-7.6-0.1-9.1,0.1
			c-1.8,0.3-0.8,5.9-0.1,9c-4.1,2.7-8.7,3.9-8.6,6.9c0.1,3,4.5,9.5,6,9.4c0,0,0,0,0-0.1c-0.2,2.1,0.2,4.4,0,5.1
			c-0.3,1.4-4.7,1.8-3.3,4.6c1.1,2.2,4.6,1.6,7.9,1c-2.4,2.3-1.1,6.7,2.1,7.6c3.3,1,0.3,5.6,4.6,5.4c3.3-0.2,7-4.9,7.9-7.8
			c1.1,1.8,1.2,2,8.5,4c8.1,2.2,6.2-1.3,6.3-4.8c1.3,2.3,7.6,3.4,10.5,3.1c2.9-0.3,0.6-2,1.4-4.4c2.6-7.5,2-10.2,0-10.8
			c0.3-0.1,0.6-0.2,0.9-0.2c3.8-0.9,7.5-1.5,5.7-2.8C251.1,284,251.3,280.5,248.6,277.3z"/>
		<path class="st18" d="M252.4,284.9c-1.8-1.3-0.5-7.7-9-11.4c-4.7-2-7.4-2-9.5-1c0.3-0.2,0.6-0.5,1-0.7c3.5-2.3,3.2-9.7,2.4-12.5
			s-2-5.3-6-4.4c-4,0.9-7,6.5-8.5,10.8c-1.6-2.6-3.9-4.9-7-5.5c-6.9-1.4-11.4-0.8-13.3-0.5c-1.8,0.3-0.8,6.2,0,9.2
			c0.6,2.3,4.1,7.2,7.7,9.2c-0.3-0.1-0.5-0.1-0.8-0.2c-2.5-0.9-4.2,2-7.4,3c-3.2,1-1.8,7.7-2.1,9.1c-0.3,1.4-4.7,1.8-3.3,4.6
			c1.5,2.9,7,1,10.7,0.6c2.3-0.2,5.9-2.4,7.9-4.3c-0.1,0.4-0.2,0.9-0.3,1.6c-0.6,2.9,1.1,3.9,3.3,7c2.2,3.1,0.6,2.8,9.3,5.2
			c8.7,2.4,5.9-1.8,6.4-5.6c0.3-2.6-1.1-7.7-2.5-11.3c1.2,1.3,2.4,2.7,3.6,2.8c2.2,0.2,8-2.1,11.7-2.9
			C250.5,286.9,254.1,286.3,252.4,284.9z"/>
		<path class="st19" d="M233.6,283.1c-1.1-0.3-2.7-1.1-3.4-1.8c-0.1-1.7-0.5-3.7-0.9-5.3c-0.2-1-1-1.6-2.2-2c0-1.1,0.3-2.5,0.7-3.5
			c-0.5,0.7-1.5,2.1-1.7,3.2c-2.2-0.4-5.1,0.1-7,0.6c-1.3-1-2.9-3.6-3.5-5.4c0,1.6,0.2,5.1,2,6.1c-0.7,0.5-1.4,1.2-2,2
			c-0.8-0.5-1.7-1.6-2.2-2.4c0.1,0.9,0.6,2.7,1.7,3.1c-1,1.5-1.8,3.5-1.9,5.3c-1-0.4-2.5,0.2-3.2,0.6c1-0.1,2.4,0.1,3.3,0.4
			c0.2,1.4,0.9,2.8,2.3,3.9c2.1,1.6,4.2,1.9,6.1,1.5c-0.4,1,0.3,2.6,0.7,3.3c-0.2-1-0.1-2.7,0.3-3.6c3-1,5.5-3.4,6.5-4.3
			c0.6-0.5,0.8-1.4,0.9-2.3C231.1,283.2,232.8,283.2,233.6,283.1z"/>
	</g>
</g>
</svg>
