<?xml version="1.0" encoding="utf-8"?>
<!-- Generator: Adobe Illustrator 21.1.0, SVG Export Plug-In . SVG Version: 6.00 Build 0)  -->
<svg version="1.1" id="Calque_1" xmlns="http://www.w3.org/2000/svg" xmlns:xlink="http://www.w3.org/1999/xlink" x="0px" y="0px"
	 viewBox="0 0 432 432" style="enable-background:new 0 0 432 432;" xml:space="preserve">
<style type="text/css">
	.st0{fill:#A29F5C;}
	.st1{fill:#1B1B1B;}
	.st2{fill:#3E2B14;}
	.st3{fill:#603914;}
	.st4{fill:#8C633A;}
	.st5{fill:#DACD8F;}
	.st6{fill:#CDCCCC;}
	.st7{fill:#9A9999;}
	.st8{fill:#754D24;}
	.st9{fill:#808181;}
	.st10{fill:#6A6065;}
	.st11{fill:#823231;}
	.st12{fill:#537791;}
	.st13{fill:#B4B4B4;}
	.st14{fill:#C1292E;}
	.st15{fill:#0D71B9;}
	.st16{fill:#009245;}
	.st17{fill:#C69C6C;}
	.st18{fill:#4E4D4D;}
	.st19{fill:#668E86;}
	.st20{fill:#0A2C40;}
	.st21{fill:#67792D;}
	.st22{fill:#9C8C51;}
	.st23{fill:#405F64;}
	.st24{fill:#020203;}
	.st25{fill:#FFD64E;}
	.st26{fill:#ED6E13;}
	.st27{fill:#B4B2AD;}
	.st28{fill:#F4983C;}
	.st29{fill:#ED6E88;}
	.st30{fill:#E8E5DC;}
	.st31{fill:#AECD63;}
	.st32{fill:#B19A7E;}
	.st33{fill:#71C3BA;}
	.st34{fill:#A1D4D0;}
	.st35{fill:#C7DC94;}
	.st36{fill:#F2A0A5;}
	.st37{fill:#695E2B;}
	.st38{fill:#343434;}
	.st39{fill:#DE9496;}
	.st40{fill:#9EB15A;}
	.st41{fill:#9D2F64;}
	.st42{fill:#7B549C;}
	.st43{fill:#67B6A4;}
	.st44{fill:#508CB3;}
	.st45{fill:#F1BB67;}
	.st46{fill:#9D897C;}
	.st47{fill:#F5C546;}
	.st48{fill-rule:evenodd;clip-rule:evenodd;fill:#DE9496;}
	.st49{fill:#7F7264;}
	.st50{fill:#FFFFFF;}
	.st51{fill:#E8913D;}
	.st52{fill:#69B88F;}
	.st53{fill:#DACBBE;}
	.st54{fill:#E5D9D4;}
	.st55{fill:#AB827E;}
	.st56{fill:#333333;}
	.st57{fill:#E48E8C;}
	.st58{fill:#EBA380;}
	.st59{fill:#E27970;}
	.st60{fill:#404042;}
	.st61{fill:#B3B1AB;}
	.st62{fill:#FAB967;}
	.st63{fill:#DACCBF;}
	.st64{fill:#D1D1CF;}
	.st65{fill:#E5E4E0;}
	.st66{fill:#F7BDCB;}
	.st67{fill:#C7C6C6;}
	.st68{fill:#D28190;}
	.st69{fill:#9D3E49;}
	.st70{fill:#D85A73;}
	.st71{fill:#D4CBBC;}
	.st72{fill:#F1F0EC;}
	.st73{fill:#FDD69C;}
</style>
<g>
	<g>
		<g>
			<path class="st3" d="M152,65.1c4.9,0,9.9,0,14.8,0c1,0,2,0.1,2.9,0.2c1,0.1,1.2,0.3,1.3,1.3c0,0.2,0.1,0.4,0.1,0.6
				c0,2.4,0,4.8-0.5,7.2c-0.2,1.1-0.5,1.3-1.6,1.3c-9.9,0-19.8,0.2-29.8-0.4c-0.7,0-1.4-0.2-2.1-0.3c-0.6-0.1-1-0.4-1.1-1.1
				c-0.3-1.8-0.6-3.6-0.9-5.4c-0.2-0.9-0.3-1.9-0.4-2.8c-0.1-0.7,0.1-0.9,0.8-1c0.1,0,0.1,0,0.2,0C141.1,64.9,146.6,65,152,65.1
				C152,65.1,152,65.1,152,65.1z"/>
			<path class="st3" d="M182.8,83c-3.6-6-4.2-6.6-9.9-8.9c0.1-1.6,0.2-3.2,0.4-4.9c1.1-0.2,2.1-0.1,3.2,0c3.1,0.5,5.8,1.8,8.3,3.7
				c2.7,2,4.8,4.6,6.6,7.5c0.5,0.8,0.9,1.6,1.5,2.5C189.4,83,186.1,83,182.8,83z"/>
			<path class="st3" d="M132.9,67.8c0.3,2,0.6,3.9,0.8,5.8c-4,1.9-7.3,4.5-9.3,8.6c-3.2,0-6.5,0-9.7,0c0.2-1.1,0.8-2,1.4-2.8
				c3.2-4.6,7.4-7.9,12.5-10.1C130,68.7,131.3,68.1,132.9,67.8z"/>
		</g>
		<g>
			<g>
				<path class="st3" d="M140.6,164.1c0,0.9,0,1.7,0,2.6c-0.4,0.1-0.8,0.2-1.2,0.2c-1.9,0.3-3.1,1.7-3.1,3.7c0,0.8,0.1,1.6,0.3,2.4
					c0.4,1.9,1.6,3,3.3,3.7c0.5,0.2,0.9,0.3,1.5,0.4c0.1,0.8,0.1,1.6,0.2,2.4c0.1,1.1,0.2,2.1,0.3,3.2c0.2,1.5,1,2.3,2.4,2.6
					c1.5,0.3,3,0.5,4.6,0.6c4.6,0.3,9.1,0,13.6-0.3c0.3,0,0.6-0.1,0.9-0.1c1.8-0.4,2.4-1.1,2.7-2.9c0.3-1.6,0.3-3.2,0.1-4.8
					c-0.1-0.4-0.1-0.8-0.1-1.3c0.3-0.1,0.6-0.2,0.9-0.3c2.5-0.8,3.8-2.6,3.9-5.3c0-2.9-1-4.1-3.8-4.4c-0.5-0.1-1.1-0.1-1.7-0.2
					c-0.1-1-0.2-1.9-0.3-2.9c0.8-0.1,1.5-0.2,2.2-0.3c6.8-0.8,13.3-2.6,19.7-4.7c6.7-2.1,13.2-4.8,19.6-7.5c8.8-3.7,17.9-6.8,27-9.5
					c2-0.6,3.9-1.2,5.9-1.9c0.2,0,0.3-0.1,0.5-0.1c0,0.6,0.1,1.2,0.1,1.8c0.2,8.9,0.5,17.8,0.6,26.7c0.1,6.2-0.2,12.4-0.3,18.7
					c0,3.5,0,7-0.1,10.5c0,2-0.1,3.9-0.4,5.9c-0.3,1.5-0.8,2.9-1.9,4c-1,1.1-2.3,1.5-3.7,1.6c-2.2,0.1-4.4,0.3-6.7,0.3
					c-14.1,0-28.2,0-42.3,0.1c-9.9,0-19.9,0.2-29.8,0.2c-16.8,0.1-33.7,0.2-50.5,0.2c-9.3,0-18.6-0.1-27.9-0.2
					c-2.1,0-4.3-0.2-6.4-0.4c-0.8-0.1-1.5-0.3-2.3-0.6c-1-0.3-1.7-1.1-1.9-2.1c-0.2-0.7-0.4-1.5-0.4-2.2c0-2.8,0-5.5,0-8.3
					c0.1-6.9,0.3-13.8,0.3-20.7c0-5.9,0-11.7-0.1-17.6c-0.1-4.9-0.2-9.8-0.3-14.6c0-0.4,0-0.7,0-1.2c0.3,0.1,0.6,0.1,0.8,0.2
					c1.2,0.5,2.4,0.9,3.6,1.5c5.1,2.3,10.5,4,15.7,5.8c13.2,4.6,26.5,8.7,39.9,12.4C131.2,162.8,133.7,163.2,140.6,164.1z"/>
				<path class="st3" d="M152.2,169.1c5.1-0.2,9.2-0.4,13.2-0.5c0.8,0,1.6,0.1,2.3,0.2c0.7,0.1,1,0.5,1.1,1.2
					c0.4,2.1-0.6,3.7-2.6,4.3c-1.8,0.5-3.7,0.7-5.5,0.8c-5.5,0.1-11,0.1-16.5,0.2c-0.9,0-1.8-0.1-2.6-0.2c-2-0.3-2.9-1.2-3.1-3.2
					c0-0.4-0.1-0.8-0.1-1.2c0-1,0.5-1.5,1.6-1.6c0.9,0,1.9,0,2.8,0C146.3,169.1,149.8,169.1,152.2,169.1z"/>
			</g>
			<g>
				<path class="st4" d="M59.8,85c1.4-0.6,2.8-0.7,4.2-0.8c1.4-0.1,2.8-0.1,4.2-0.1c16.1,0.1,32.3,0.1,48.4,0.2
					c14,0.1,27.9,0.3,41.9,0.4c9.8,0.1,19.6,0.3,29.4,0.3c6.9,0,13.9-0.5,20.8-0.7c7.8-0.2,15.5-0.5,23.3-0.1
					c4.3,0.2,8.5,0.5,12.7,0.8c0.4,0,0.8,0.1,1.4,0.2c0.1,0.9,0.3,1.8,0.3,2.7c0.2,8.7,0.3,17.4,0.5,26.1c0.1,4.3,0.3,8.5,0.4,12.8
					c0.1,1.7,0,3.5-0.6,5.1c-0.7,2-1.9,3.6-4,4.3c-2.8,1-5.7,2-8.6,2.9c-7,2.2-14,4.3-20.8,6.9c-5.5,2.2-11,4.5-16.6,6.7
					c-6.8,2.7-13.7,5-20.7,6.7c-5.8,1.4-11.7,2.1-17.6,2.5c-4.9,0.3-9.7,0.3-14.6,0.2c-5.4-0.1-10.7-1-15.9-2.3
					c-7.6-1.9-15-4.3-22.5-6.6c-9.9-3-19.7-6.4-29.5-10c-3.9-1.4-7.7-3.2-11.6-4.8c-0.7-0.3-1.3-0.7-2-1c-1.5-0.8-2.3-2.1-2.4-3.8
					c-0.1-1.3-0.2-2.6-0.2-3.9c0-2.6,0-5.2,0-7.9c0-9.5,0-19.1,0-28.6C59.8,90.5,59.8,87.8,59.8,85z"/>
				<g>
					<path class="st4" d="M164,177c0.1,0.4,0.2,0.9,0.2,1.4c0,1.2,0,2.5-0.1,3.7c-0.1,1.1-0.3,1.2-1.3,1.4c-0.3,0.1-0.6,0.1-1,0.1
						c-4.4,0.2-8.9,0.6-13.3,0.2c-1.2-0.1-2.3-0.2-3.5-0.4c-0.8-0.1-1-0.3-1.1-1.2c-0.2-1.6-0.3-3.2-0.5-4.9
						C150.4,177.3,157.2,177.2,164,177z"/>
					<path class="st4" d="M142.8,166.9c0-0.9,0-1.8,0-2.7c6.7,0.2,13.4,0.1,20.2-0.5c0.1,1,0.2,1.9,0.3,2.9
						C156.4,166.7,149.7,167.4,142.8,166.9z"/>
				</g>
			</g>
		</g>
	</g>
	<g>
		<path class="st3" d="M261.6,166.6c0.6-0.3,1.1-0.6,1.6-0.8c2.5-1.1,5.2-1.6,7.8-2.1c6.3-1.2,12.7-1.5,19.1-1.6
			c4.5-0.1,8.9-0.2,13.4-0.1c6.7,0.2,13.4,1.1,19.8,3.3c0.8,0.3,1.6,0.6,2.5,1c0.1,0.1,0.3,0.1,0.6,0.3c-0.3,0.1-0.5,0.3-0.7,0.3
			c-2.1,0.5-4.2,1-6.3,1.3c-9.6,1.2-19.3,2.2-29,2.2c-5.5,0-11-0.3-16.5-0.9c-3.2-0.3-6.4-0.8-9.5-1.7
			C263.4,167.5,262.5,167.2,261.6,166.6z"/>
		<g>
			<path class="st5" d="M256.9,163.9c1.2,3,3.4,4.6,6.2,5.5c3.1,1,6.2,1.6,9.4,1.9c4.7,0.4,9.3,0.8,14,1c5.7,0.3,11.4,0,17.1-0.5
				c4.3-0.4,8.7-0.8,13-1.2c2.9-0.3,5.8-0.7,8.7-1.5c0.8-0.2,1.5-0.5,2.2-0.8c2.7-1.2,4.9-2.9,5.3-6.3c1.2,0.8,1.6,1.8,1.7,3
				c0,0.8-0.1,1.6-0.1,2.4c0,1.3,0,2.6,0.1,3.8c0.3,2,1.4,2.9,3.4,2.7c2.1-0.2,4.3-0.5,6.4-0.9c2.5-0.5,5.1-0.7,7.6-0.3
				c1.4,0.3,2.9,0.6,4.2,1.2c4.9,2.2,8.7,5.6,11,10.4c2.5,5.1,4.1,10.5,4.7,16.1c0.4,3.5,0.5,6.9,0.3,10.4
				c-0.4,5.8-1.2,11.5-3.7,16.8c-0.6,1.3-1.3,2.6-2,3.8c-2.2,4.2-5.8,6.8-10.3,8.2c-2.8,0.9-5.7,1-8.6,0.7c-2.2-0.2-4.2-0.8-6.3-1.4
				c-1-0.3-2-0.5-3-0.8c-0.2-0.1-0.5-0.1-0.7-0.1c-2.6-0.2-3.9,0.8-4.3,3.3c-0.2,1-0.2,2-0.2,2.9c0,2.5,0,4.9-0.4,7.3
				c-0.1,0.7-0.3,1.3-0.4,2c-0.4,1.4-1.2,2.4-2.7,2.9c-2.7,0.8-5.4,1.8-8.2,2.5c-5.6,1.5-11.4,2.2-17.3,2.6c-4.3,0.3-8.6,0.4-13,0.2
				c-6-0.4-12.1-0.8-18-2c-3.4-0.7-6.8-1.7-9.9-3.5c-2.5-1.4-4-3.5-4.4-6.4c-0.1-1.1-0.2-2.2-0.3-3.3c-0.2-5.4-0.4-10.9-0.7-16.3
				c-0.3-6.7-0.6-13.5-1-20.2c-0.3-5.5-0.7-10.9-0.8-16.4c-0.2-8.8-0.1-17.6-0.1-26.3C255.8,166.3,256.2,165.1,256.9,163.9z
				 M334.1,207.5C334.1,207.5,334.1,207.5,334.1,207.5c0,1.4,0,2.8,0,4.1c0,3.1-0.1,6.2,0,9.2c0,3,1.2,5.6,3.3,7.7
				c3.5,3.5,7.8,5.4,12.7,5.6c3.1,0.1,5.8-0.8,8.3-2.8c3.3-2.8,5.6-6.2,6.7-10.4c1-3.7,1.6-7.6,1.8-11.4c0.4-5.5,0.2-10.9-0.9-16.3
				c-1-4.9-3.2-9.1-7.2-12.1c-5.1-3.9-10.6-4.3-16.5-1.7c-1.1,0.5-2.1,1.3-2.8,2.2c-1.5,1.9-2.8,3.9-3.8,6.2c-0.8,1.9-1.5,3.9-1.6,6
				c0,1.3-0.1,2.6-0.2,3.8C334.1,200.9,334.1,204.2,334.1,207.5z"/>
			<path class="st5" d="M260,165.6c-0.9-0.8-1.5-1.7-1.7-2.8c-0.2-0.7,0-1.2,0.5-1.7c1-0.9,2.1-1.5,3.3-2c2.7-1.1,5.4-1.8,8.2-2.2
				c3.8-0.6,7.6-1.2,11.5-1.7c5.7-0.7,11.4-0.9,17.2-0.6c6,0.2,12,0.8,18,1.8c4.1,0.7,8.1,1.8,12,3.4c0.1,0,0.1,0.1,0.2,0.1
				c1.9,0.9,2.1,1.5,1.3,3.5c-0.4,1-1.2,1.6-2.1,2.2c-1.5-1.2-3.3-1.8-5-2.4c-4.5-1.5-9.2-2.3-13.9-2.8c-6.5-0.7-13.1-0.4-19.6-0.3
				c-4.6,0.1-9.1,0.3-13.6,0.9c-3.6,0.4-7.1,1-10.6,2C263.5,163.4,261.7,164.2,260,165.6z"/>
		</g>
	</g>
	<g>
		<path class="st6" d="M93.3,275.4c-0.1,0.5-0.1,0.8-0.2,1.1c-2.3,10.9-4.7,21.8-7,32.7c-1,4.6-1.7,9.2-2.6,13.8
			c-0.1,0.4-0.1,0.9-0.1,1.4c0,1.4,0.7,2.2,2.1,2.5c0.7,0.2,1.4,0.2,2.1,0.3c3.7,0.9,7.4,1.7,11.1,2.7c6.9,1.8,13.9,3.3,21,4.7
			c1.2,0.2,2.3,0.4,3.5,0.6c0.5,0.1,0.6,0.3,0.7,0.7c1.6,7.7,3.2,15.4,4.8,23.1c0.1,0.5,0.3,1.1,0.5,1.6c0.2,0.4,0.6,0.6,1.1,0.5
			c0.4-0.1,0.7-0.5,0.7-1.1c0-0.3-0.1-0.6-0.1-0.9c-1.5-7.3-3.1-14.7-4.7-22c-0.1-0.4-0.2-0.9-0.3-1.4c13,1.6,25.8,3.8,38.4,6.7
			c0.5,2.6,1,5.1,1.5,7.6c0.3,1.5,0.6,2.9,0.9,4.4c0.1,0.3,0.2,0.6,0.3,0.9c0.2,0.4,0.6,0.6,1,0.6c0.4-0.1,0.8-0.5,0.8-1
			c0-0.4-0.1-0.7-0.1-1.1c-0.7-3.3-1.4-6.7-2-10c-0.1-0.3-0.1-0.6-0.2-1c0.3,0,0.5,0,0.7,0.1c7.9,1.5,15.8,2.9,23.7,4.4
			c3.1,0.6,6.1,1.2,9.1,1.8c1.9,0.4,3.1-0.2,4-1.9c0.7-1.4,1.1-2.9,1.3-4.4c0.5-2.5,0.9-5,1.4-7.4c0-0.2,0.1-0.3,0.2-0.7
			c0.1,0.3,0.2,0.4,0.2,0.5c0.6,3.5,1.2,7,1.7,10.6c0.1,0.9,0.2,1.9,0.2,2.8c0,1-0.6,1.7-1.6,2c-1.2,0.3-2.4,0.5-3.6,0.8
			c-5.3,1-10.6,1.9-16,2.8c-4.6,0.8-9.2,1.6-13.8,2.3c-8.4,1.3-16.8,2.6-25.1,4c-5,0.8-10,1.7-15,2.4c-4.2,0.6-8.5,1-12.8,1.5
			c-3.2,0.4-6.3,0.7-9.5,1c-4.7,0.5-9.4,0.9-14.1,1.3c-1.2,0.1-2.5,0.2-3.7,0.3c-2,0.2-2.6-0.2-3.1-2.1c-0.5-2-1-4.1-1.4-6.1
			c-1.6-8.4-3.3-16.8-4.9-25.3c-1-5.1-1.8-10.3-2.6-15.5c-1.3-7.9-2.5-15.7-3.8-23.6c-0.5-2.8-1-5.7-1.4-8.5
			c-0.2-1.4-0.3-2.9-0.5-4.3c0-0.4,0-0.8,0-1.2c0-1,0.5-1.6,1.5-1.8c1.9-0.4,3.8-0.8,5.7-1.2c3.1-0.7,6.1-1.3,9.2-2
			C92.8,275.5,93,275.5,93.3,275.4z M91.2,346.2c0.3,0,0.4,0,0.6,0c2.6-0.3,5.3-0.7,7.9-1c4.8-0.6,9.5-1.3,14.3-1.9
			c1.8-0.2,3.7-0.5,5.5-0.8c0.6-0.1,0.9-0.4,0.8-0.8c-0.1-0.5-0.5-0.6-0.9-0.5c-2.6,0.3-5.3,0.6-7.9,1c-3.1,0.4-6.2,0.9-9.3,1.3
			c-3.4,0.5-6.9,0.9-10.3,1.4c-0.5,0.1-1,0.2-1.4,0.4c-0.1,0.1-0.3,0.3-0.3,0.5c0,0.1,0.2,0.3,0.4,0.4
			C90.7,346.2,91,346.2,91.2,346.2z M94.4,357.4c1.5-0.2,3.1-0.4,4.7-0.6c7-0.9,14.1-1.9,21.1-2.8c0.5-0.1,1-0.1,1.5-0.2
			c0.7-0.1,1-0.4,0.9-0.8c-0.1-0.4-0.4-0.5-1-0.5c-0.2,0-0.4,0-0.6,0.1c-0.6,0.1-1.2,0.2-1.8,0.3c-4.5,0.6-9.1,1.2-13.6,1.9
			c-3.7,0.5-7.4,1.1-11.1,1.6c-0.3,0.1-0.7,0.2-1,0.3c-0.1,0.1-0.2,0.3-0.2,0.4c0,0.2,0.2,0.4,0.4,0.4
			C93.8,357.5,94.1,357.4,94.4,357.4z M92.9,351.7c0.7-0.1,1.5-0.1,2.2-0.2c3.8-0.5,7.6-1,11.4-1.5c4.2-0.6,8.5-1.1,12.7-1.7
			c0.3,0,0.6,0,0.7-0.2c0.2-0.1,0.4-0.4,0.3-0.6c0-0.2-0.3-0.4-0.5-0.5c-0.1-0.1-0.4,0-0.6,0c-1.5,0.2-3.1,0.4-4.6,0.6
			c-5.2,0.7-10.4,1.4-15.7,2.1c-1.9,0.3-3.8,0.5-5.6,0.8c-0.3,0-0.7,0.1-0.9,0.2c-0.2,0.1-0.4,0.4-0.4,0.6c0,0.2,0.3,0.3,0.5,0.5
			C92.7,351.7,92.8,351.7,92.9,351.7z"/>
		<g>
			<path class="st6" d="M85.6,324.8c-0.1-1.3,0.2-2.4,0.4-3.5c0.9-4.8,1.8-9.6,2.8-14.4c3.4-15.9,6.9-31.7,10.3-47.6
				c0.9-4.4,1.7-8.8,2.5-13.2c0.3-1.9,0.7-3.7,1-5.6c0.4-1.8,0.4-1.9,2.3-1.6c3.6,0.6,7.2,1.3,10.8,2c8.4,1.6,16.7,3.5,25.1,4.9
				c11.8,2,23.4,4.6,35.2,6.9c7.9,1.6,15.9,3.1,23.8,4.6c4,0.8,8,1.5,12.1,2.3c2,0.4,3.9,0.7,5.9,1.1c0.5,0.1,1.1,0.3,1.6,0.5
				c0.9,0.3,1.1,0.6,0.9,1.6c-0.2,1.5-0.5,3-0.8,4.5c-2.9,17.3-6.9,34.3-10.6,51.4c-1.1,4.9-2.4,9.6-3.5,14.5
				c-0.7,3.2-1.3,6.5-1.9,9.7c-0.2,1.1-0.5,2.1-0.9,3.1c-0.4,1.1-0.8,1.3-2,1.1c-8.2-1.6-16.3-3.1-24.5-4.7
				c-8.1-1.6-16.2-3.3-24.3-4.8c-5.3-1-10.6-1.9-16-2.7c-12-1.7-24-3.8-35.7-6.9c-3.4-0.9-6.8-1.8-10.3-2.6c-1-0.2-2-0.3-3-0.5
				C86.3,324.9,86,324.9,85.6,324.8z M165.4,297.9c0,0-0.1,0-0.1,0c0-0.4,0-0.8,0-1.2c-0.1-2-0.7-2.9-2.6-3.5
				c-1.4-0.5-2.8-0.9-4.2-1.2c-4.3-1-8.6-1.9-12.9-2.3c-1.3-0.1-2.5-0.2-3.8-0.2c-1.7,0-2.8,0.7-3.4,2.3c-0.1,0.2-0.2,0.5-0.2,0.7
				c-1.2,4.4-1.9,9-2.5,13.5c-0.9,5.7-1.7,11.5-2.9,17.1c-0.4,1.7-0.5,3.4-0.7,5c-0.2,1.2,0.4,2,1.5,2.5c0.7,0.3,1.4,0.6,2.1,0.8
				c5.4,1.4,10.9,2.4,16.4,2.9c1.2,0.1,2.4,0.1,3.6,0.1c1.2-0.1,2-0.8,2.5-1.8c0.3-0.6,0.5-1.3,0.7-2c1.8-8.3,3.7-16.6,5.4-24.9
				C164.7,303.1,165,300.5,165.4,297.9z M169.4,263.6c0.1,0,0.1,0,0.2,0c0.1,0.8,0.2,1.5,0.3,2.3c0.3,2.7,0.7,5.3,1,8
				c0.1,0.5,0.2,1,0.8,1.1c0.6,0.1,1-0.3,1.3-0.7c0.2-0.3,0.4-0.7,0.6-1.1c0.4-0.7,0.7-1.4,1-2.1c1.4-2.8,2.9-5.6,4.3-8.4
				c0.3-0.5,0.6-1,1.2-1.2c0.3-0.1,0.6-0.4,0.6-0.8c-0.1-0.4-0.4-0.6-0.8-0.6c-1-0.1-2.1-0.2-3.1-0.3c-0.3,0-0.6,0.1-0.8,0.3
				c-0.2,0.3-0.1,0.6,0.2,0.9c0.4,0.3,0.3,0.7,0.1,1.1c-0.7,1.5-1.4,3.1-2.1,4.6c-0.1,0.2-0.2,0.3-0.4,0.6c-0.2-1.9-0.3-3.7-0.4-5.5
				c0-0.2,0-0.3,0.1-0.5c0.5-0.9,0.4-1.1-0.5-1.5c-1.4-0.6-2.9-0.7-4.4-0.9c-0.7-0.1-1.2,0.5-0.8,1.2c0.3,0.6,0.2,1.1-0.1,1.7
				c-0.5,1-1,2.1-1.4,3.1c-0.1,0.1-0.2,0.3-0.4,0.5c-0.1-2.1-0.3-3.9-0.4-5.8c0-0.4,0-0.7,0.3-1.1c0.7-0.6,0.6-1-0.2-1.4
				c-0.8-0.3-1.7-0.6-2.5-0.9c-0.5-0.1-1-0.1-1.5,0c-0.7,0.1-0.9,0.5-0.5,1.2c0.1,0.3,0.2,0.5,0.3,0.8c0.1,1,0.2,2,0.2,2.9
				c0.1,3.1,0.3,6.3,0.4,9.4c0,0.5,0.1,1,0.4,1.5c0.4,0.9,1.4,1.1,2.1,0.4c0.4-0.4,0.7-0.8,0.9-1.3c1.2-2.3,2.4-4.7,3.6-7
				C169.1,264.2,169.3,263.9,169.4,263.6z M130.8,278.5c0-2.6-0.6-3.5-2.7-4c0,0-0.1,0-0.1,0c-6.8-1.8-13.7-3.6-20.5-5.4
				c-1-0.3-2.1-0.5-3.2-0.6c-2.8-0.1-3.8,1-4.1,3c-0.4,2.1-0.9,4.2-1.3,6.2c-1.3,6-2.5,12-3.8,18.1c-0.1,0.4-0.2,0.8-0.2,1.3
				c-0.1,1.1,0.2,1.6,1.2,2c0.4,0.2,0.8,0.3,1.2,0.4c1.5,0.3,3,0.6,4.4,0.9c5.7,1.3,11.4,2.7,17.1,4.1c1,0.2,1.9,0.5,2.9,0.6
				c1.9,0.3,3.1-0.5,3.7-2.2c0.2-0.4,0.3-0.9,0.4-1.3c1.4-6.2,2.8-12.3,4.1-18.5C130.4,281.4,130.6,279.7,130.8,278.5z M137.8,256.7
				c0.1,0,0.2,0,0.2,0c0.7,1.9,1.3,3.8,2,5.6c0.7,1.9,1.4,3.9,2.1,5.8c0.2,0.5,0.5,1.1,0.9,1.5c0.6,0.7,1.5,0.6,2-0.2
				c0.3-0.4,0.5-0.9,0.6-1.3c0.2-1,0.4-2.1,0.6-3.2c0.5-2.8,0.9-5.6,1.3-8.3c0.1-0.7,0.3-1.3,1-1.7c0.7-0.5,0.7-1.1-0.2-1.4
				c-0.8-0.3-1.7-0.6-2.5-0.8c-0.2-0.1-0.6,0-0.8,0.2c-0.3,0.3,0,0.6,0.2,0.8c0.4,0.3,0.5,0.7,0.4,1.2c-0.3,1.5-0.4,2.9-0.7,4.4
				c-0.2,1.2-0.4,2.3-0.6,3.5c-0.2-0.2-0.3-0.3-0.4-0.5c-0.4-1.2-0.8-2.4-1.2-3.6c-0.6-1.6-1.1-3.1-1.8-4.7c-0.9-2.2-3.1-2.7-5-2.7
				c-0.7,0-1.1,0.6-0.7,1.1c0.6,0.9,0.5,1.8,0.3,2.7c-0.6,3.5-1.3,7-1.9,10.4c-0.1,0.5-0.2,0.9-0.6,1.2c-0.4,0.4-0.3,0.8,0.3,0.9
				c0.8,0.2,1.7,0.4,2.5,0.5c0.3,0,0.7-0.1,0.9-0.3c0.3-0.3,0-0.6-0.2-0.8c-0.5-0.5-0.6-1.1-0.6-1.7c0-0.5,0-1,0.1-1.5
				c0.4-1.9,0.8-3.7,1.2-5.6C137.6,257.8,137.7,257.3,137.8,256.7z M136.3,279.7c0-0.3,0-0.4,0-0.5c0-0.4-0.2-0.8-0.6-0.9
				c-0.5-0.1-0.8,0.1-1,0.5c-0.2,0.4-0.4,0.9-0.6,1.4c-0.4,1.6-0.9,3.2-1.2,4.9c-0.7,3.8-1.3,7.6-2.1,11.4
				c-1.2,5.8-2.5,11.6-3.7,17.5c-1.1,5.3-2,10.6-3,15.9c-0.1,0.8,0.1,1.3,0.7,1.4c0.6,0.1,1.1-0.2,1.3-0.9c0.1-0.4,0.2-0.8,0.3-1.2
				c1.2-5.9,2.3-11.9,3.5-17.8c1.1-5.4,2.3-10.7,3.3-16c1-4.9,1.7-9.8,2.9-14.6C136.2,280.3,136.2,279.9,136.3,279.7z M161.9,337.7
				c0,0.6,0.3,1,0.7,1.1c0.5,0.1,0.9-0.1,1.1-0.6c0.3-0.7,0.4-1.4,0.6-2.1c2.7-10.6,4.5-21.4,6.2-32.3c0.8-4.9,1.7-9.7,2.5-14.6
				c0.1-0.6,0.3-1.1,0.4-1.7c0.1-0.8-0.1-1.2-0.6-1.4c-0.5-0.2-1,0.1-1.3,0.9c-0.2,0.5-0.3,1-0.4,1.5c-0.8,4.4-1.6,8.8-2.4,13.2
				c-1,5.7-1.8,11.5-2.9,17.2c-1.1,5.7-2.4,11.4-3.7,17.2C162.1,336.7,162,337.2,161.9,337.7z M153.2,264c1.1,0.3,2,0.6,3,0.8
				c0.6,0.2,1.1,0.5,1.5,1c0.1,0.2,0.5,0.4,0.7,0.3c0.2,0,0.4-0.3,0.5-0.5c0.2-0.8,0.4-1.7,0.4-2.5c0.1-1-0.4-1.2-1.3-0.8
				c-0.4,0.2-0.9,0.5-1.3,0.4c-1.1-0.2-2.1-0.5-3.1-0.8c0.3-1.4,0.6-2.8,0.9-4.3c0.8,0.2,1.5,0.3,2.2,0.4c0.8,0.2,1.5,0.4,1.9,1.3
				c0.1,0.2,0.5,0.4,0.7,0.4c0.2,0,0.5-0.3,0.6-0.5c0.2-0.6,0.3-1.3,0.4-1.9c0-0.7-0.3-1.1-1-1.3c-1.8-0.5-3.6-1-5.4-1.4
				c-0.8-0.2-1.6-0.2-2.3-0.2c-0.8,0-1,0.5-0.5,1.1c0.5,0.6,0.5,1.3,0.4,2c-0.4,2.3-0.8,4.7-1.3,7c-0.4,1.7-0.3,3.6-1.8,5
				c-0.4,0.4-0.2,0.9,0.3,1.1c0.3,0.1,0.6,0.2,0.9,0.3c1.7,0.3,3.4,0.7,5.1,1c0.7,0.1,1.4,0.3,2.1,0.3c0.3,0,0.8-0.1,1-0.3
				c0.5-0.7,0.6-1.5,0.5-2.3c-0.1-0.4-0.5-0.6-0.9-0.3c-0.2,0.2-0.3,0.4-0.6,0.5c-0.2,0.1-0.6,0.3-0.8,0.2c-1.2-0.3-2.4-0.7-3.7-1.1
				C152.5,267.4,152.9,265.7,153.2,264z M179.5,276.1c0.3,0.2,0.6,0.4,1,0.6c3.1,1.9,6.7,0.6,7.9-2.8c0.7-1.9,0.4-3.6-0.8-5.2
				c-0.6-0.7-1.3-1.3-1.9-1.9c-0.5-0.5-1.1-1-1.5-1.5c-0.6-0.7-0.3-1.7,0.5-1.9c1.4-0.2,2.2,0,3,1.1c0.2,0.4,0.4,0.8,0.6,1.1
				c0.2,0.4,0.4,0.7,0.9,0.7c0.5-0.1,0.7-0.5,0.8-0.9c0.1-0.6,0.2-1.2,0.2-1.8c0-0.8-0.3-1.2-1-1.5c-0.5-0.2-1-0.4-1.6-0.6
				c-1.4-0.5-2.8-0.6-4.3-0.2c-1.6,0.4-2.6,1.5-3.1,3c-0.4,1.5,0.3,2.6,1.3,3.6c0.6,0.6,1.3,1,1.9,1.5c0.7,0.6,1.3,1.2,1.9,1.9
				c0.6,0.8,0.5,1.9-0.1,2.7c-0.7,0.9-1.7,1.2-2.7,0.7c-0.7-0.3-1.3-0.8-1.9-1.2c-0.3-0.2-0.5-0.4-0.8-0.6c-0.9-0.5-1.8-0.1-2,0.8
				c-0.1,0.6-0.2,1.3-0.2,1.9c0,0.8,0.7,1.1,1.4,0.8C179,276.5,179.2,276.3,179.5,276.1z M176.6,288.7c0.3,0.2,0.6,0.4,0.9,0.5
				c0.4,0.2,0.7,0.2,1.1,0.3c5.7,1.3,11.3,2.6,17,3.9c4.1,0.9,8.2,1.8,12.3,2.7c0.9,0.2,1.3,0.1,1.4-0.4c0.1-0.5-0.2-0.7-1.2-0.9
				c-4.2-1-8.4-1.9-12.6-2.9c-3.7-0.8-7.4-1.6-11.1-2.4c-2.1-0.4-4.2-0.9-6.3-1.3C177.6,288.3,177.1,288.2,176.6,288.7z
				 M175.3,300.9c-0.2,0.1-0.6,0.3-0.6,0.5c-0.1,0.3,0.2,0.5,0.5,0.6c0.5,0.2,1.1,0.3,1.6,0.5c9.5,2.1,19.1,4.3,28.6,6.4
				c0.3,0.1,0.5,0.1,0.8,0c0.2-0.1,0.4-0.3,0.5-0.5c0.1-0.2-0.1-0.5-0.2-0.6c-0.2-0.2-0.5-0.2-0.8-0.3c-8.8-2-17.5-3.9-26.3-5.8
				C178.1,301.4,176.8,301.1,175.3,300.9z M207,300c0.5,0,0.9-0.1,1-0.5c0.1-0.4-0.2-0.7-0.6-0.8c-0.4-0.1-0.8-0.2-1.1-0.3
				c-9.4-2.1-18.8-4.2-28.1-6.3c-0.2,0-0.3-0.1-0.5-0.1c-0.4,0-0.7,0.1-0.7,0.5c-0.1,0.4,0.2,0.5,0.5,0.6c0.4,0.1,0.7,0.2,1.1,0.3
				c8.7,2,17.3,3.9,26,5.9C205.4,299.6,206.3,299.8,207,300z M176.5,296.9C176.5,296.9,176.5,297,176.5,296.9
				c-0.1,0.1-0.3,0-0.4,0.1c-0.2,0.1-0.3,0.2-0.4,0.4c0,0.1,0.1,0.3,0.2,0.4c0.2,0.1,0.5,0.2,0.7,0.3c0.8,0.2,1.5,0.4,2.3,0.6
				c8.5,1.9,17,3.8,25.5,5.7c0.6,0.1,1.2,0.3,1.8,0.4c0.4,0.1,0.7-0.1,0.7-0.5c0.1-0.4-0.1-0.6-0.5-0.8c-0.4-0.1-0.8-0.2-1.1-0.3
				c-7.9-1.7-15.8-3.5-23.7-5.2C180,297.6,178.3,297.3,176.5,296.9z M94.4,305.4c-0.2,0.1-0.6,0.2-0.7,0.4c-0.2,0.4,0.3,0.6,0.6,0.7
				c0.3,0.1,0.7,0.2,1,0.3c8.7,2.2,17.3,4.3,26,6.5c0.2,0,0.4,0.1,0.6,0.1c0.4,0,0.7-0.1,0.8-0.5c0.1-0.4-0.1-0.6-0.4-0.8
				c-0.2-0.1-0.5-0.2-0.8-0.2c-8.1-2-16.2-4-24.4-6C96.3,305.8,95.4,305.6,94.4,305.4z M93.4,312.5c-0.5,0-0.9,0-1.1,0.4
				c-0.1,0.5,0.2,0.6,0.6,0.8c0.4,0.1,0.7,0.2,1.1,0.3c8.6,2,17.3,4,25.9,6c0.2,0.1,0.5,0.1,0.7,0.1c0.4,0,0.7-0.1,0.7-0.5
				c0.1-0.4-0.1-0.6-0.5-0.7c-0.2-0.1-0.4-0.1-0.7-0.2c-7.6-1.8-15.2-3.5-22.8-5.3C96,313.1,94.6,312.8,93.4,312.5z M91.6,316.5
				c0.3,0.2,0.4,0.5,0.6,0.6c0.6,0.2,1.2,0.5,1.9,0.6c8.3,2,16.6,4,24.9,6.1c0.2,0.1,0.4,0.1,0.7,0.1c0.4,0,0.7-0.1,0.8-0.4
				c0.1-0.4-0.1-0.7-0.5-0.8c-0.2-0.1-0.5-0.1-0.8-0.2c-6.1-1.5-12.3-3-18.4-4.5c-2.4-0.6-4.9-1.1-7.4-1.7
				C92.8,316.1,92.2,316,91.6,316.5z M96.1,302.2c-0.2,0-0.3,0-0.3,0c-0.2,0.1-0.6,0.2-0.7,0.4c-0.2,0.3,0.2,0.5,0.4,0.7
				c0.4,0.2,0.7,0.3,1.1,0.4c2.3,0.6,4.5,1.1,6.8,1.7c6.2,1.5,12.3,2.9,18.5,4.4c0.3,0.1,0.5,0.1,0.8,0.2c0.4,0,0.7-0.1,0.7-0.5
				c0-0.2-0.2-0.5-0.4-0.7c-0.2-0.2-0.5-0.2-0.7-0.2c-8.2-2-16.5-3.9-24.7-5.9C96.9,302.3,96.4,302.2,96.1,302.2z M140.6,280
				c-0.4,0-0.8,0-0.9,0.5c-0.1,0.4,0.3,0.5,0.6,0.6c0.5,0.2,1,0.3,1.5,0.4c8.1,1.8,16.3,3.5,24.4,5.3c0.3,0.1,0.5,0.1,0.8,0.1
				c0.2-0.1,0.5-0.3,0.6-0.4c0-0.2-0.1-0.6-0.3-0.7c-0.2-0.2-0.6-0.2-0.9-0.3c-7.2-1.5-14.3-3.1-21.5-4.6
				C143.5,280.5,142,280.3,140.6,280z M140.5,284.1c-0.2,0-0.3,0-0.4,0c-0.2,0.1-0.4,0.2-0.6,0.4c0.1,0.2,0.2,0.5,0.5,0.7
				c0.3,0.2,0.7,0.3,1.1,0.4c2.2,0.5,4.4,1,6.6,1.5c5.9,1.3,11.8,2.6,17.6,3.8c0.3,0.1,0.6,0.2,0.9,0.1c0.2-0.1,0.6-0.3,0.6-0.5
				c0-0.2-0.2-0.5-0.4-0.7c-0.2-0.2-0.5-0.2-0.8-0.3c-7-1.5-13.9-3-20.9-4.5C143.1,284.6,141.7,284.4,140.5,284.1z"/>
			<g>
				<path class="st7" d="M142.5,290.8c3.8,0.3,7.6,0.7,11.3,1.6c2.6,0.7,5.2,1.2,7.7,1.9c2.2,0.6,2.6,1,2.4,3.2
					c-0.2,2.3-0.5,4.7-1,7c-1.8,8.6-3.7,17.1-5.5,25.6c0,0.2-0.1,0.4-0.1,0.6c-0.5,2.1-1.3,2.6-3.5,2.5c-1.7-0.1-3.5-0.4-5.2-0.6
					c-4.3-0.6-8.5-1.4-12.7-2.5c-0.5-0.1-1.1-0.3-1.6-0.5c-0.8-0.3-1.1-0.9-1-1.7c0.1-1.3,0.3-2.5,0.5-3.8c0.6-3.7,1.4-7.3,2-11
					c0.7-4,1.2-8,1.8-12c0.4-2.4,0.9-4.8,1.4-7.1c0.1-0.6,0.3-1.1,0.5-1.7c0.3-1,1-1.4,2-1.4C141.9,290.8,142.2,290.8,142.5,290.8z"
					/>
				<path class="st7" d="M129.4,278.5c-0.2,1.2-0.4,2.8-0.8,4.4c-1.3,5.9-2.6,11.8-3.9,17.7c-0.1,0.6-0.3,1.2-0.5,1.8
					c-0.4,1.1-1,1.5-2.2,1.4c-0.8-0.1-1.5-0.3-2.3-0.5c-5.7-1.4-11.3-2.8-17-4.1c-1.6-0.4-3.2-0.6-4.8-0.9c-1.8-0.4-1.8-0.5-1.4-2.3
					c0.6-2.6,1.3-5.2,1.8-7.8c1-4.8,1.9-9.7,2.9-14.5c0.1-0.7,0.3-1.5,0.5-2.2c0.1-0.8,0.6-1.2,1.4-1.4c1-0.2,1.9-0.1,2.8,0.2
					c3.3,0.8,6.5,1.7,9.8,2.5c4,1.1,8,2.1,11.9,3.2c0,0,0.1,0,0.1,0C129.2,276.2,129.4,276.5,129.4,278.5z"/>
			</g>
		</g>
	</g>
</g>
</svg>
